<?xml version="1.0" standalone="no"?>
<svg xmlns="http://www.w3.org/2000/svg" xmlns:xlink="http://www.w3.org/1999/xlink" width="564pt" height="851pt" viewBox="0.00 0.00 563.55 851.20">
<g id="graph0" class="graph" transform="translate(62.02006640738139,731.9743086822155) scale(0.790041311863377)" data-name="Tree">

<polygon fill="white" stroke="none" points="-4,4 -4,-847.2 559.55,-847.2 559.55,4 -4,4" style=""/>
<!-- 0 -->
<g id="node1" class="node" pointer-events="visible" data-name="0">

<path fill="#ffffff" stroke="black" d="M321.4,-843.2C321.4,-843.2 233.15,-843.2 233.15,-843.2 227.15,-843.2 221.15,-837.2 221.15,-831.2 221.15,-831.2 221.15,-763.2 221.15,-763.2 221.15,-757.2 227.15,-751.2 233.15,-751.2 233.15,-751.2 321.4,-751.2 321.4,-751.2 327.4,-751.2 333.4,-757.2 333.4,-763.2 333.4,-763.2 333.4,-831.2 333.4,-831.2 333.4,-837.2 327.4,-843.2 321.4,-843.2" style=""/>
<text text-anchor="middle" x="277.28" y="-826.6" font-family="Helvetica,sans-Serif" font-size="14.00">cgpa &lt;= 6.15</text>
<text text-anchor="middle" x="277.28" y="-809.8" font-family="Helvetica,sans-Serif" font-size="14.00">gini = 0.5</text>
<text text-anchor="middle" x="277.28" y="-793" font-family="Helvetica,sans-Serif" font-size="14.00">samples = 100</text>
<text text-anchor="middle" x="277.28" y="-776.2" font-family="Helvetica,sans-Serif" font-size="14.00">value = [50, 50]</text>
<text text-anchor="middle" x="277.28" y="-759.4" font-family="Helvetica,sans-Serif" font-size="14.00">class = No</text>
</g>
<!-- 1 -->
<g id="node2" class="node" pointer-events="visible" data-name="1">

<path fill="#e89051" stroke="black" d="M256.62,-715.2C256.62,-715.2 175.94,-715.2 175.94,-715.2 169.94,-715.2 163.94,-709.2 163.94,-703.2 163.94,-703.2 163.94,-635.2 163.94,-635.2 163.94,-629.2 169.94,-623.2 175.94,-623.2 175.94,-623.2 256.62,-623.2 256.62,-623.2 262.62,-623.2 268.62,-629.2 268.62,-635.2 268.62,-635.2 268.62,-703.2 268.62,-703.2 268.62,-709.2 262.62,-715.2 256.62,-715.2" style=""/>
<text text-anchor="middle" x="216.28" y="-698.6" font-family="Helvetica,sans-Serif" font-size="14.00">cgpa &lt;= 5.55</text>
<text text-anchor="middle" x="216.28" y="-681.8" font-family="Helvetica,sans-Serif" font-size="14.00">gini = 0.191</text>
<text text-anchor="middle" x="216.28" y="-665" font-family="Helvetica,sans-Serif" font-size="14.00">samples = 56</text>
<text text-anchor="middle" x="216.28" y="-648.2" font-family="Helvetica,sans-Serif" font-size="14.00">value = [50, 6]</text>
<text text-anchor="middle" x="216.28" y="-631.4" font-family="Helvetica,sans-Serif" font-size="14.00">class = No</text>
</g>
<!-- 0&#45;&gt;1 -->
<g id="edge1" class="edge" data-name="0-&gt;1">

<path fill="none" stroke="black" d="M255.25,-750.71C251.37,-742.68 247.28,-734.24 243.28,-725.97" style=""/>
<polygon fill="black" stroke="black" points="246.43,-724.46 238.93,-716.98 240.13,-727.51 246.43,-724.46" style=""/>
<text text-anchor="middle" x="230.06" y="-735.04" font-family="Helvetica,sans-Serif" font-size="14.00">True</text>
</g>
<!-- 16 -->
<g id="node17" class="node" pointer-events="visible" data-name="16">

<path fill="#399de5" stroke="black" d="M378.62,-706.9C378.62,-706.9 297.94,-706.9 297.94,-706.9 291.94,-706.9 285.94,-700.9 285.94,-694.9 285.94,-694.9 285.94,-643.5 285.94,-643.5 285.94,-637.5 291.94,-631.5 297.94,-631.5 297.94,-631.5 378.62,-631.5 378.62,-631.5 384.62,-631.5 390.62,-637.5 390.62,-643.5 390.62,-643.5 390.62,-694.9 390.62,-694.9 390.62,-700.9 384.62,-706.9 378.62,-706.9" style=""/>
<text text-anchor="middle" x="338.28" y="-690.2" font-family="Helvetica,sans-Serif" font-size="14.00">gini = 0.0</text>
<text text-anchor="middle" x="338.28" y="-673.4" font-family="Helvetica,sans-Serif" font-size="14.00">samples = 44</text>
<text text-anchor="middle" x="338.28" y="-656.6" font-family="Helvetica,sans-Serif" font-size="14.00">value = [0, 44]</text>
<text text-anchor="middle" x="338.28" y="-639.8" font-family="Helvetica,sans-Serif" font-size="14.00">class = Yes</text>
</g>
<!-- 0&#45;&gt;16 -->
<g id="edge16" class="edge" data-name="0-&gt;16">

<path fill="none" stroke="black" d="M299.3,-750.71C304.52,-739.92 310.11,-728.39 315.37,-717.52" style=""/>
<polygon fill="black" stroke="black" points="318.43,-719.23 319.64,-708.71 312.13,-716.18 318.43,-719.23" style=""/>
<text text-anchor="middle" x="328.5" y="-726.76" font-family="Helvetica,sans-Serif" font-size="14.00">False</text>
</g>
<!-- 2 -->
<g id="node3" class="node" pointer-events="visible" data-name="2">

<path fill="#e58139" stroke="black" d="M195.62,-578.9C195.62,-578.9 114.94,-578.9 114.94,-578.9 108.94,-578.9 102.94,-572.9 102.94,-566.9 102.94,-566.9 102.94,-515.5 102.94,-515.5 102.94,-509.5 108.94,-503.5 114.94,-503.5 114.94,-503.5 195.62,-503.5 195.62,-503.5 201.62,-503.5 207.62,-509.5 207.62,-515.5 207.62,-515.5 207.62,-566.9 207.62,-566.9 207.62,-572.9 201.62,-578.9 195.62,-578.9" style=""/>
<text text-anchor="middle" x="155.28" y="-562.2" font-family="Helvetica,sans-Serif" font-size="14.00">gini = 0.0</text>
<text text-anchor="middle" x="155.28" y="-545.4" font-family="Helvetica,sans-Serif" font-size="14.00">samples = 39</text>
<text text-anchor="middle" x="155.28" y="-528.6" font-family="Helvetica,sans-Serif" font-size="14.00">value = [39, 0]</text>
<text text-anchor="middle" x="155.28" y="-511.8" font-family="Helvetica,sans-Serif" font-size="14.00">class = No</text>
</g>
<!-- 1&#45;&gt;2 -->
<g id="edge2" class="edge" data-name="1-&gt;2">

<path fill="none" stroke="black" d="M194.25,-622.71C189.03,-611.92 183.45,-600.39 178.18,-589.52" style=""/>
<polygon fill="black" stroke="black" points="181.43,-588.18 173.92,-580.71 175.13,-591.23 181.43,-588.18" style=""/>
</g>
<!-- 3 -->
<g id="node4" class="node" pointer-events="visible" data-name="3">

<path fill="#f3c6a5" stroke="black" d="M317.62,-587.2C317.62,-587.2 236.94,-587.2 236.94,-587.2 230.94,-587.2 224.94,-581.2 224.94,-575.2 224.94,-575.2 224.94,-507.2 224.94,-507.2 224.94,-501.2 230.94,-495.2 236.94,-495.2 236.94,-495.2 317.62,-495.2 317.62,-495.2 323.62,-495.2 329.62,-501.2 329.62,-507.2 329.62,-507.2 329.62,-575.2 329.62,-575.2 329.62,-581.2 323.62,-587.2 317.62,-587.2" style=""/>
<text text-anchor="middle" x="277.28" y="-570.6" font-family="Helvetica,sans-Serif" font-size="14.00">iq &lt;= 136.0</text>
<text text-anchor="middle" x="277.28" y="-553.8" font-family="Helvetica,sans-Serif" font-size="14.00">gini = 0.457</text>
<text text-anchor="middle" x="277.28" y="-537" font-family="Helvetica,sans-Serif" font-size="14.00">samples = 17</text>
<text text-anchor="middle" x="277.28" y="-520.2" font-family="Helvetica,sans-Serif" font-size="14.00">value = [11, 6]</text>
<text text-anchor="middle" x="277.28" y="-503.4" font-family="Helvetica,sans-Serif" font-size="14.00">class = No</text>
</g>
<!-- 1&#45;&gt;3 -->
<g id="edge3" class="edge" data-name="1-&gt;3">

<path fill="none" stroke="black" d="M238.3,-622.71C242.19,-614.68 246.27,-606.24 250.28,-597.97" style=""/>
<polygon fill="black" stroke="black" points="253.42,-599.51 254.63,-588.98 247.12,-596.46 253.42,-599.51" style=""/>
</g>
<!-- 4 -->
<g id="node5" class="node" pointer-events="visible" data-name="4">

<path fill="#ffffff" stroke="black" d="M256.94,-459.2C256.94,-459.2 181.62,-459.2 181.62,-459.2 175.62,-459.2 169.62,-453.2 169.62,-447.2 169.62,-447.2 169.62,-379.2 169.62,-379.2 169.62,-373.2 175.62,-367.2 181.62,-367.2 181.62,-367.2 256.94,-367.2 256.94,-367.2 262.94,-367.2 268.94,-373.2 268.94,-379.2 268.94,-379.2 268.94,-447.2 268.94,-447.2 268.94,-453.2 262.94,-459.2 256.94,-459.2" style=""/>
<text text-anchor="middle" x="219.28" y="-442.6" font-family="Helvetica,sans-Serif" font-size="14.00">iq &lt;= 115.0</text>
<text text-anchor="middle" x="219.28" y="-425.8" font-family="Helvetica,sans-Serif" font-size="14.00">gini = 0.5</text>
<text text-anchor="middle" x="219.28" y="-409" font-family="Helvetica,sans-Serif" font-size="14.00">samples = 10</text>
<text text-anchor="middle" x="219.28" y="-392.2" font-family="Helvetica,sans-Serif" font-size="14.00">value = [5, 5]</text>
<text text-anchor="middle" x="219.28" y="-375.4" font-family="Helvetica,sans-Serif" font-size="14.00">class = No</text>
</g>
<!-- 3&#45;&gt;4 -->
<g id="edge4" class="edge" data-name="3-&gt;4">

<path fill="none" stroke="black" d="M256.34,-494.71C252.64,-486.68 248.76,-478.24 244.95,-469.97" style=""/>
<polygon fill="black" stroke="black" points="248.18,-468.62 240.82,-461 241.82,-471.54 248.18,-468.62" style=""/>
</g>
<!-- 11 -->
<g id="node12" class="node" pointer-events="visible" data-name="11">

<path fill="#e9965a" stroke="black" d="M371.33,-459.2C371.33,-459.2 299.22,-459.2 299.22,-459.2 293.22,-459.2 287.22,-453.2 287.22,-447.2 287.22,-447.2 287.22,-379.2 287.22,-379.2 287.22,-373.2 293.22,-367.2 299.22,-367.2 299.22,-367.2 371.33,-367.2 371.33,-367.2 377.33,-367.2 383.33,-373.2 383.33,-379.2 383.33,-379.2 383.33,-447.2 383.33,-447.2 383.33,-453.2 377.33,-459.2 371.33,-459.2" style=""/>
<text text-anchor="middle" x="335.28" y="-442.6" font-family="Helvetica,sans-Serif" font-size="14.00">iq &lt;= 161.0</text>
<text text-anchor="middle" x="335.28" y="-425.8" font-family="Helvetica,sans-Serif" font-size="14.00">gini = 0.245</text>
<text text-anchor="middle" x="335.28" y="-409" font-family="Helvetica,sans-Serif" font-size="14.00">samples = 7</text>
<text text-anchor="middle" x="335.28" y="-392.2" font-family="Helvetica,sans-Serif" font-size="14.00">value = [6, 1]</text>
<text text-anchor="middle" x="335.28" y="-375.4" font-family="Helvetica,sans-Serif" font-size="14.00">class = No</text>
</g>
<!-- 3&#45;&gt;11 -->
<g id="edge11" class="edge" data-name="3-&gt;11">

<path fill="none" stroke="black" d="M298.22,-494.71C301.91,-486.68 305.8,-478.24 309.61,-469.97" style=""/>
<polygon fill="black" stroke="black" points="312.73,-471.54 313.74,-461 306.38,-468.62 312.73,-471.54" style=""/>
</g>
<!-- 5 -->
<g id="node6" class="node" pointer-events="visible" data-name="5">

<path fill="#efb388" stroke="black" d="M141.33,-331.2C141.33,-331.2 69.22,-331.2 69.22,-331.2 63.22,-331.2 57.22,-325.2 57.22,-319.2 57.22,-319.2 57.22,-251.2 57.22,-251.2 57.22,-245.2 63.22,-239.2 69.22,-239.2 69.22,-239.2 141.33,-239.2 141.33,-239.2 147.33,-239.2 153.33,-245.2 153.33,-251.2 153.33,-251.2 153.33,-319.2 153.33,-319.2 153.33,-325.2 147.33,-331.2 141.33,-331.2" style=""/>
<text text-anchor="middle" x="105.28" y="-314.6" font-family="Helvetica,sans-Serif" font-size="14.00">iq &lt;= 73.5</text>
<text text-anchor="middle" x="105.28" y="-297.8" font-family="Helvetica,sans-Serif" font-size="14.00">gini = 0.408</text>
<text text-anchor="middle" x="105.28" y="-281" font-family="Helvetica,sans-Serif" font-size="14.00">samples = 7</text>
<text text-anchor="middle" x="105.28" y="-264.2" font-family="Helvetica,sans-Serif" font-size="14.00">value = [5, 2]</text>
<text text-anchor="middle" x="105.28" y="-247.4" font-family="Helvetica,sans-Serif" font-size="14.00">class = No</text>
</g>
<!-- 4&#45;&gt;5 -->
<g id="edge5" class="edge" data-name="4-&gt;5">

<path fill="none" stroke="black" d="M178.12,-366.71C170.29,-358.06 162.03,-348.92 153.99,-340.04" style=""/>
<polygon fill="black" stroke="black" points="156.69,-337.81 147.39,-332.74 151.5,-342.51 156.69,-337.81" style=""/>
</g>
<!-- 10 -->
<g id="node11" class="node" pointer-events="visible" data-name="10">

<path fill="#399de5" stroke="black" d="M256.33,-322.9C256.33,-322.9 184.22,-322.9 184.22,-322.9 178.22,-322.9 172.22,-316.9 172.22,-310.9 172.22,-310.9 172.22,-259.5 172.22,-259.5 172.22,-253.5 178.22,-247.5 184.22,-247.5 184.22,-247.5 256.33,-247.5 256.33,-247.5 262.33,-247.5 268.33,-253.5 268.33,-259.5 268.33,-259.5 268.33,-310.9 268.33,-310.9 268.33,-316.9 262.33,-322.9 256.33,-322.9" style=""/>
<text text-anchor="middle" x="220.28" y="-306.2" font-family="Helvetica,sans-Serif" font-size="14.00">gini = 0.0</text>
<text text-anchor="middle" x="220.28" y="-289.4" font-family="Helvetica,sans-Serif" font-size="14.00">samples = 3</text>
<text text-anchor="middle" x="220.28" y="-272.6" font-family="Helvetica,sans-Serif" font-size="14.00">value = [0, 3]</text>
<text text-anchor="middle" x="220.28" y="-255.8" font-family="Helvetica,sans-Serif" font-size="14.00">class = Yes</text>
</g>
<!-- 4&#45;&gt;10 -->
<g id="edge10" class="edge" data-name="4-&gt;10">

<path fill="none" stroke="black" d="M219.64,-366.71C219.72,-356.25 219.81,-345.1 219.89,-334.53" style=""/>
<polygon fill="black" stroke="black" points="223.39,-334.88 219.97,-324.86 216.39,-334.83 223.39,-334.88" style=""/>
</g>
<!-- 6 -->
<g id="node7" class="node" pointer-events="visible" data-name="6">

<path fill="#9ccef2" stroke="black" d="M142.02,-203.2C142.02,-203.2 68.54,-203.2 68.54,-203.2 62.54,-203.2 56.54,-197.2 56.54,-191.2 56.54,-191.2 56.54,-123.2 56.54,-123.2 56.54,-117.2 62.54,-111.2 68.54,-111.2 68.54,-111.2 142.02,-111.2 142.02,-111.2 148.02,-111.2 154.02,-117.2 154.02,-123.2 154.02,-123.2 154.02,-191.2 154.02,-191.2 154.02,-197.2 148.02,-203.2 142.02,-203.2" style=""/>
<text text-anchor="middle" x="105.28" y="-186.6" font-family="Helvetica,sans-Serif" font-size="14.00">cgpa &lt;= 6.05</text>
<text text-anchor="middle" x="105.28" y="-169.8" font-family="Helvetica,sans-Serif" font-size="14.00">gini = 0.444</text>
<text text-anchor="middle" x="105.28" y="-153" font-family="Helvetica,sans-Serif" font-size="14.00">samples = 3</text>
<text text-anchor="middle" x="105.28" y="-136.2" font-family="Helvetica,sans-Serif" font-size="14.00">value = [1, 2]</text>
<text text-anchor="middle" x="105.28" y="-119.4" font-family="Helvetica,sans-Serif" font-size="14.00">class = Yes</text>
</g>
<!-- 5&#45;&gt;6 -->
<g id="edge6" class="edge" data-name="5-&gt;6">

<path fill="none" stroke="black" d="M105.28,-238.71C105.28,-231.04 105.28,-222.99 105.28,-215.07" style=""/>
<polygon fill="black" stroke="black" points="108.78,-215.14 105.28,-205.14 101.78,-215.14 108.78,-215.14" style=""/>
</g>
<!-- 9 -->
<g id="node10" class="node" pointer-events="visible" data-name="9">

<path fill="#e58139" stroke="black" d="M256.33,-194.9C256.33,-194.9 184.22,-194.9 184.22,-194.9 178.22,-194.9 172.22,-188.9 172.22,-182.9 172.22,-182.9 172.22,-131.5 172.22,-131.5 172.22,-125.5 178.22,-119.5 184.22,-119.5 184.22,-119.5 256.33,-119.5 256.33,-119.5 262.33,-119.5 268.33,-125.5 268.33,-131.5 268.33,-131.5 268.33,-182.9 268.33,-182.9 268.33,-188.9 262.33,-194.9 256.33,-194.9" style=""/>
<text text-anchor="middle" x="220.28" y="-178.2" font-family="Helvetica,sans-Serif" font-size="14.00">gini = 0.0</text>
<text text-anchor="middle" x="220.28" y="-161.4" font-family="Helvetica,sans-Serif" font-size="14.00">samples = 4</text>
<text text-anchor="middle" x="220.28" y="-144.6" font-family="Helvetica,sans-Serif" font-size="14.00">value = [4, 0]</text>
<text text-anchor="middle" x="220.28" y="-127.8" font-family="Helvetica,sans-Serif" font-size="14.00">class = No</text>
</g>
<!-- 5&#45;&gt;9 -->
<g id="edge9" class="edge" data-name="5-&gt;9">

<path fill="none" stroke="black" d="M146.79,-238.71C157.15,-227.36 168.26,-215.19 178.62,-203.84" style=""/>
<polygon fill="black" stroke="black" points="181.2,-206.21 185.36,-196.46 176.03,-201.49 181.2,-206.21" style=""/>
</g>
<!-- 7 -->
<g id="node8" class="node" pointer-events="visible" data-name="7">

<path fill="#399de5" stroke="black" d="M84.33,-75.3C84.33,-75.3 12.22,-75.3 12.22,-75.3 6.22,-75.3 0.22,-69.3 0.22,-63.3 0.22,-63.3 0.22,-11.9 0.22,-11.9 0.22,-5.9 6.22,0.1 12.22,0.1 12.22,0.1 84.33,0.1 84.33,0.1 90.33,0.1 96.33,-5.9 96.33,-11.9 96.33,-11.9 96.33,-63.3 96.33,-63.3 96.33,-69.3 90.33,-75.3 84.33,-75.3" style=""/>
<text text-anchor="middle" x="48.28" y="-58.6" font-family="Helvetica,sans-Serif" font-size="14.00">gini = 0.0</text>
<text text-anchor="middle" x="48.28" y="-41.8" font-family="Helvetica,sans-Serif" font-size="14.00">samples = 2</text>
<text text-anchor="middle" x="48.28" y="-25" font-family="Helvetica,sans-Serif" font-size="14.00">value = [0, 2]</text>
<text text-anchor="middle" x="48.28" y="-8.2" font-family="Helvetica,sans-Serif" font-size="14.00">class = Yes</text>
</g>
<!-- 6&#45;&gt;7 -->
<g id="edge7" class="edge" data-name="6-&gt;7">

<path fill="none" stroke="black" d="M83.24,-110.73C79.27,-102.55 75.13,-94.01 71.15,-85.78" style=""/>
<polygon fill="black" stroke="black" points="74.37,-84.41 66.86,-76.94 68.07,-87.47 74.37,-84.41" style=""/>
</g>
<!-- 8 -->
<g id="node9" class="node" pointer-events="visible" data-name="8">

<path fill="#e58139" stroke="black" d="M199.33,-75.3C199.33,-75.3 127.22,-75.3 127.22,-75.3 121.22,-75.3 115.22,-69.3 115.22,-63.3 115.22,-63.3 115.22,-11.9 115.22,-11.9 115.22,-5.9 121.22,0.1 127.22,0.1 127.22,0.1 199.33,0.1 199.33,0.1 205.33,0.1 211.33,-5.9 211.33,-11.9 211.33,-11.9 211.33,-63.3 211.33,-63.3 211.33,-69.3 205.33,-75.3 199.33,-75.3" style=""/>
<text text-anchor="middle" x="163.28" y="-58.6" font-family="Helvetica,sans-Serif" font-size="14.00">gini = 0.0</text>
<text text-anchor="middle" x="163.28" y="-41.8" font-family="Helvetica,sans-Serif" font-size="14.00">samples = 1</text>
<text text-anchor="middle" x="163.28" y="-25" font-family="Helvetica,sans-Serif" font-size="14.00">value = [1, 0]</text>
<text text-anchor="middle" x="163.28" y="-8.2" font-family="Helvetica,sans-Serif" font-size="14.00">class = No</text>
</g>
<!-- 6&#45;&gt;8 -->
<g id="edge8" class="edge" data-name="6-&gt;8">

<path fill="none" stroke="black" d="M127.7,-110.73C131.74,-102.55 135.95,-94.01 140.01,-85.78" style=""/>
<polygon fill="black" stroke="black" points="143.09,-87.45 144.37,-76.94 136.81,-84.36 143.09,-87.45" style=""/>
</g>
<!-- 12 -->
<g id="node13" class="node" pointer-events="visible" data-name="12">

<path fill="#e58139" stroke="black" d="M371.33,-322.9C371.33,-322.9 299.22,-322.9 299.22,-322.9 293.22,-322.9 287.22,-316.9 287.22,-310.9 287.22,-310.9 287.22,-259.5 287.22,-259.5 287.22,-253.5 293.22,-247.5 299.22,-247.5 299.22,-247.5 371.33,-247.5 371.33,-247.5 377.33,-247.5 383.33,-253.5 383.33,-259.5 383.33,-259.5 383.33,-310.9 383.33,-310.9 383.33,-316.9 377.33,-322.9 371.33,-322.9" style=""/>
<text text-anchor="middle" x="335.28" y="-306.2" font-family="Helvetica,sans-Serif" font-size="14.00">gini = 0.0</text>
<text text-anchor="middle" x="335.28" y="-289.4" font-family="Helvetica,sans-Serif" font-size="14.00">samples = 5</text>
<text text-anchor="middle" x="335.28" y="-272.6" font-family="Helvetica,sans-Serif" font-size="14.00">value = [5, 0]</text>
<text text-anchor="middle" x="335.28" y="-255.8" font-family="Helvetica,sans-Serif" font-size="14.00">class = No</text>
</g>
<!-- 11&#45;&gt;12 -->
<g id="edge12" class="edge" data-name="11-&gt;12">

<path fill="none" stroke="black" d="M335.28,-366.71C335.28,-356.25 335.28,-345.1 335.28,-334.53" style=""/>
<polygon fill="black" stroke="black" points="338.78,-334.86 335.28,-324.86 331.78,-334.86 338.78,-334.86" style=""/>
</g>
<!-- 13 -->
<g id="node14" class="node" pointer-events="visible" data-name="13">

<path fill="#ffffff" stroke="black" d="M486.33,-331.2C486.33,-331.2 414.22,-331.2 414.22,-331.2 408.22,-331.2 402.22,-325.2 402.22,-319.2 402.22,-319.2 402.22,-251.2 402.22,-251.2 402.22,-245.2 408.22,-239.2 414.22,-239.2 414.22,-239.2 486.33,-239.2 486.33,-239.2 492.33,-239.2 498.33,-245.2 498.33,-251.2 498.33,-251.2 498.33,-319.2 498.33,-319.2 498.33,-325.2 492.33,-331.2 486.33,-331.2" style=""/>
<text text-anchor="middle" x="450.28" y="-314.6" font-family="Helvetica,sans-Serif" font-size="14.00">iq &lt;= 167.5</text>
<text text-anchor="middle" x="450.28" y="-297.8" font-family="Helvetica,sans-Serif" font-size="14.00">gini = 0.5</text>
<text text-anchor="middle" x="450.28" y="-281" font-family="Helvetica,sans-Serif" font-size="14.00">samples = 2</text>
<text text-anchor="middle" x="450.28" y="-264.2" font-family="Helvetica,sans-Serif" font-size="14.00">value = [1, 1]</text>
<text text-anchor="middle" x="450.28" y="-247.4" font-family="Helvetica,sans-Serif" font-size="14.00">class = No</text>
</g>
<!-- 11&#45;&gt;13 -->
<g id="edge13" class="edge" data-name="11-&gt;13">

<path fill="none" stroke="black" d="M376.79,-366.71C384.69,-358.06 393.03,-348.92 401.14,-340.04" style=""/>
<polygon fill="black" stroke="black" points="403.64,-342.49 407.8,-332.74 398.47,-337.77 403.64,-342.49" style=""/>
</g>
<!-- 14 -->
<g id="node15" class="node" pointer-events="visible" data-name="14">

<path fill="#399de5" stroke="black" d="M428.33,-194.9C428.33,-194.9 356.22,-194.9 356.22,-194.9 350.22,-194.9 344.22,-188.9 344.22,-182.9 344.22,-182.9 344.22,-131.5 344.22,-131.5 344.22,-125.5 350.22,-119.5 356.22,-119.5 356.22,-119.5 428.33,-119.5 428.33,-119.5 434.33,-119.5 440.33,-125.5 440.33,-131.5 440.33,-131.5 440.33,-182.9 440.33,-182.9 440.33,-188.9 434.33,-194.9 428.33,-194.9" style=""/>
<text text-anchor="middle" x="392.28" y="-178.2" font-family="Helvetica,sans-Serif" font-size="14.00">gini = 0.0</text>
<text text-anchor="middle" x="392.28" y="-161.4" font-family="Helvetica,sans-Serif" font-size="14.00">samples = 1</text>
<text text-anchor="middle" x="392.28" y="-144.6" font-family="Helvetica,sans-Serif" font-size="14.00">value = [0, 1]</text>
<text text-anchor="middle" x="392.28" y="-127.8" font-family="Helvetica,sans-Serif" font-size="14.00">class = Yes</text>
</g>
<!-- 13&#45;&gt;14 -->
<g id="edge14" class="edge" data-name="13-&gt;14">

<path fill="none" stroke="black" d="M429.34,-238.71C424.37,-227.92 419.06,-216.39 414.06,-205.52" style=""/>
<polygon fill="black" stroke="black" points="417.37,-204.34 410.01,-196.72 411.01,-207.27 417.37,-204.34" style=""/>
</g>
<!-- 15 -->
<g id="node16" class="node" pointer-events="visible" data-name="15">

<path fill="#e58139" stroke="black" d="M543.33,-194.9C543.33,-194.9 471.22,-194.9 471.22,-194.9 465.22,-194.9 459.22,-188.9 459.22,-182.9 459.22,-182.9 459.22,-131.5 459.22,-131.5 459.22,-125.5 465.22,-119.5 471.22,-119.5 471.22,-119.5 543.33,-119.5 543.33,-119.5 549.33,-119.5 555.33,-125.5 555.33,-131.5 555.33,-131.5 555.33,-182.9 555.33,-182.9 555.33,-188.9 549.33,-194.9 543.33,-194.9" style=""/>
<text text-anchor="middle" x="507.28" y="-178.2" font-family="Helvetica,sans-Serif" font-size="14.00">gini = 0.0</text>
<text text-anchor="middle" x="507.28" y="-161.4" font-family="Helvetica,sans-Serif" font-size="14.00">samples = 1</text>
<text text-anchor="middle" x="507.28" y="-144.6" font-family="Helvetica,sans-Serif" font-size="14.00">value = [1, 0]</text>
<text text-anchor="middle" x="507.28" y="-127.8" font-family="Helvetica,sans-Serif" font-size="14.00">class = No</text>
</g>
<!-- 13&#45;&gt;15 -->
<g id="edge15" class="edge" data-name="13-&gt;15">

<path fill="none" stroke="black" d="M470.86,-238.71C475.74,-227.92 480.96,-216.39 485.87,-205.52" style=""/>
<polygon fill="black" stroke="black" points="488.92,-207.28 489.85,-196.72 482.54,-204.39 488.92,-207.28" style=""/>
</g>
</g>
</svg>